<svg width="606" height="448" viewBox="0 0 606 448" fill="none" xmlns="http://www.w3.org/2000/svg">
<g clip-path="url(#clip0_37_894)">
<path d="M430.144 328.582H103.804C100.897 328.579 98.1089 327.422 96.0528 325.366C93.9967 323.31 92.8401 320.522 92.8368 317.614V51.8749C92.8401 48.967 93.9967 46.1791 96.0528 44.1229C98.1089 42.0668 100.897 40.9101 103.804 40.9067H430.144C433.051 40.9101 435.839 42.0668 437.895 44.1229C439.951 46.1791 441.108 48.967 441.111 51.8749V317.614C441.108 320.522 439.951 323.31 437.895 325.366C435.839 327.422 433.051 328.579 430.144 328.582Z" fill="#C8E7CD"/>
<path d="M111.204 48.7136C108.403 48.7169 105.718 49.8311 103.737 51.8118C101.756 53.7925 100.642 56.478 100.639 59.2791V310.216C100.643 313.017 101.757 315.702 103.737 317.683C105.718 319.663 108.403 320.777 111.204 320.781H334.57C360.749 320.751 385.846 310.338 404.357 291.826C422.868 273.314 433.281 248.215 433.31 222.035V59.2791C433.307 56.478 432.193 53.7925 430.213 51.8118C428.232 49.8311 425.547 48.7169 422.746 48.7136L111.204 48.7136Z" fill="white"/>
<path d="M370.635 161.571H311.462C310.228 161.57 309.045 161.079 308.172 160.206C307.3 159.334 306.809 158.15 306.807 156.916V127.463C306.809 126.229 307.3 125.046 308.172 124.173C309.045 123.3 310.228 122.809 311.462 122.808H370.635C371.869 122.809 373.053 123.3 373.925 124.173C374.798 125.046 375.289 126.229 375.29 127.463C378.952 137.886 379.472 147.789 375.29 156.916C375.289 158.15 374.798 159.334 373.925 160.206C373.053 161.079 371.869 161.57 370.635 161.571Z" fill="#C8E7CD"/>
<path d="M363.625 158.725H313.352C312.303 158.724 311.298 158.307 310.556 157.565C309.815 156.824 309.398 155.818 309.397 154.77V129.746C309.398 128.698 309.815 127.692 310.556 126.951C311.298 126.209 312.303 125.792 313.352 125.791H363.625C364.674 125.792 365.679 126.209 366.42 126.951C367.162 127.692 367.579 128.698 367.58 129.746C370.973 138.658 371.519 147.091 367.58 154.77C367.579 155.818 367.162 156.824 366.42 157.565C365.679 158.307 364.674 158.724 363.625 158.725Z" fill="white"/>
<path d="M360.914 177H321.053C319.88 177.001 318.755 176.537 317.924 175.709C317.094 174.881 316.626 173.758 316.624 172.585C316.621 171.412 317.085 170.287 317.912 169.456C318.74 168.625 319.863 168.157 321.036 168.154H360.914C362.085 168.156 363.208 168.623 364.036 169.452C364.863 170.282 365.328 171.405 365.328 172.577C365.328 173.748 364.863 174.872 364.036 175.701C363.208 176.53 362.085 176.997 360.914 177Z" fill="#C8E7CD"/>
<path d="M334.113 132.548C333.654 132.549 333.215 132.732 332.891 133.057C332.567 133.382 332.384 133.821 332.383 134.28V153.027C332.383 153.329 332.463 153.627 332.614 153.889C332.765 154.151 332.982 154.37 333.244 154.522C333.505 154.674 333.803 154.754 334.105 154.756C334.408 154.757 334.706 154.679 334.969 154.529L351.515 145.094C351.781 144.942 352.002 144.723 352.155 144.458C352.308 144.194 352.389 143.893 352.388 143.587C352.387 143.281 352.305 142.981 352.15 142.717C351.995 142.453 351.773 142.235 351.506 142.085L334.961 132.772C334.702 132.626 334.41 132.548 334.113 132.548Z" fill="#C8E7CD"/>
<path d="M575.508 412.132C574.595 410.972 573.356 410.111 571.95 409.662C570.543 409.212 569.035 409.194 567.618 409.61L567.309 409.702L564.53 420.549C564.114 418.933 563.224 415.283 562.662 411.711L562.614 411.416L562.338 411.537C559.434 412.821 556.703 414.466 554.211 416.435C549.797 419.976 546.207 424.436 543.69 429.505C541.174 434.574 539.791 440.13 539.638 445.787L539.633 445.995L539.628 446.126L539.996 445.995L547.89 443.173C551.385 443.481 554.905 443.005 558.193 441.779C561.48 440.553 564.452 438.608 566.892 436.087C570.082 432.723 572.27 428.396 574.385 424.209C575.004 422.989 575.638 421.731 576.287 420.52C577.01 419.205 577.323 417.702 577.184 416.207C577.045 414.712 576.461 413.292 575.508 412.132Z" fill="#C8E7CD"/>
<path d="M373.915 135.517C374.074 136.338 374.41 137.114 374.901 137.791C375.392 138.468 376.026 139.029 376.757 139.435C377.488 139.841 378.299 140.081 379.133 140.14C379.968 140.198 380.804 140.072 381.585 139.772L405.178 167.219L408.165 157.087L384.775 131.976C384.183 130.698 383.144 129.681 381.854 129.119C380.563 128.556 379.111 128.486 377.772 128.922C376.434 129.359 375.302 130.271 374.591 131.487C373.88 132.702 373.64 134.136 373.915 135.517Z" fill="#FFB8B8"/>
<path d="M469 439.433H461.192L457.478 409.316H469.001L469 439.433Z" fill="#FFB6B6"/>
<path d="M468.792 436.883L460.455 433.492L460.217 433.394L455.614 436.883C453.015 436.884 450.523 437.916 448.685 439.754C446.848 441.592 445.815 444.084 445.815 446.683V447.001H470.989V436.883H468.792Z" fill="#2F2E41"/>
<path d="M524.698 439.433H516.89L513.176 409.316H524.699L524.698 439.433Z" fill="#FFB6B6"/>
<path d="M524.489 436.883L516.153 433.492L515.914 433.394L511.312 436.883C508.713 436.884 506.221 437.916 504.383 439.754C502.545 441.592 501.513 444.084 501.512 446.683V447.001H526.687V436.883H524.489Z" fill="#2F2E41"/>
<path d="M506.27 259.587C506.27 259.587 516.063 269.775 516.063 278.147C516.063 286.519 513.615 298.014 516.063 300.53C518.512 303.045 521.572 306.106 517.9 309.778C514.227 313.451 512.391 315.287 514.839 317.736C517.288 320.184 516.063 363.031 516.063 363.031L528.917 420.568H512.724L492.193 363.031L486.684 315.287L468.87 361.194L470.836 421.061L453.908 420.567L446.9 356.91C446.9 356.91 457.305 296.356 455.469 294.804C453.633 293.252 455.469 290.119 455.469 290.119L460.366 266.932L506.27 259.587Z" fill="#2F2E41"/>
<path d="M487.097 187.347C487.097 187.347 490.427 174.225 475.086 170.463C459.745 166.701 415.893 161.867 415.893 161.867L393.731 138.35L386.222 149.256L411.065 180.13L469.931 192.222L487.097 187.347Z" fill="#3F3D56"/>
<path d="M389.871 148.452C390.56 147.56 391.098 146.563 391.466 145.498L394.644 137.688L393.819 137.654C392.677 137.439 391.503 137.468 390.374 137.738C389.244 138.009 388.184 138.515 387.264 139.224C386.343 139.933 385.583 140.829 385.033 141.852C384.483 142.875 384.155 144.003 384.071 145.162C383.967 146.164 384.147 147.175 384.591 148.08C384.817 148.528 385.146 148.917 385.55 149.214C385.955 149.511 386.425 149.708 386.921 149.789C387.484 149.819 388.046 149.713 388.559 149.48C389.073 149.248 389.523 148.895 389.871 148.452Z" fill="#C8E7CD"/>
<path d="M457.24 270.059L455.404 283.37C455.404 283.37 459.077 287.314 460.913 286.821C462.749 286.328 469.482 283.458 469.482 283.458C469.482 283.458 477.438 287.807 481.723 288.3C486.007 288.793 508.654 285.835 509.266 284.356C509.878 282.877 516.992 277.088 516.992 277.088L514.162 260.199L457.24 270.059Z" fill="#C8E7CD"/>
<path d="M516.874 223.492C516.874 223.492 515.319 236.327 516.543 237.509C517.767 238.684 515.319 246.121 512.871 251.018C510.422 255.914 514.707 256.526 514.707 260.199C514.707 263.872 516.543 277.338 516.543 277.338C516.543 277.338 497.569 278.562 494.509 275.501C491.449 272.441 486.552 274.889 479.819 281.622C473.087 288.355 458.465 282.846 455.404 279.786C452.344 276.725 457.785 265.708 459.621 263.572C461.457 261.435 457.852 263.908 456.016 257.138C454.18 250.369 457.785 251.018 460.845 247.957C463.906 244.897 460.845 239.388 458.397 233.879C455.949 228.37 457.785 187.36 457.785 177.566C457.785 167.773 471.25 166.549 471.25 166.549L476.581 159.846L480.499 154.919L488.174 154.613L488.376 154.607L495.8 154.307L499.405 158.506L507.362 167.773L516.543 169.609C523.888 172.057 522.052 187.36 522.052 187.36L516.874 223.492Z" fill="#3F3D56"/>
<path d="M487.795 151.957C496.484 151.957 503.528 144.913 503.528 136.223C503.528 127.534 496.484 120.489 487.795 120.489C479.106 120.489 472.062 127.534 472.062 136.223C472.062 144.913 479.106 151.957 487.795 151.957Z" fill="#FFB6B6"/>
<path d="M506.037 130.93C501.71 128.276 502.265 121.337 498.095 118.914C496.023 117.719 493.692 117.043 491.303 116.942C488.913 116.842 486.534 117.32 484.369 118.337C481.432 117.081 477.913 118.083 475.564 120.352C473.215 122.621 471.943 125.968 471.568 129.335C471.297 132.717 471.54 136.12 472.288 139.43C472.522 138.1 472.755 136.77 472.988 135.441L485.391 132.73C484.293 133.716 483.195 134.703 482.097 135.689C487.715 136.968 493.609 136.047 498.567 133.114C503.967 135.534 502.988 140.971 498.248 148.186C500.085 151.246 510.968 133.954 506.037 130.93Z" fill="#2F2E41"/>
<path d="M499.405 158.505C499.37 158.534 499.333 158.561 499.295 158.585C497.999 159.358 496.514 159.761 495.005 159.748C493.029 159.913 491.067 159.298 489.539 158.034C488.737 157.275 485.548 158.879 483.455 159.766C481.259 160.676 478.798 160.705 476.582 159.846L480.499 154.919L486.955 153.487H488.566L495.8 154.306L499.405 158.505Z" fill="#C8E7CD"/>
<path d="M605.045 447.752L386.041 448C385.915 448.001 385.79 447.976 385.673 447.929C385.557 447.881 385.451 447.811 385.361 447.722C385.271 447.634 385.2 447.528 385.151 447.412C385.103 447.296 385.077 447.171 385.076 447.045C385.076 446.919 385.1 446.794 385.148 446.678C385.195 446.561 385.265 446.455 385.354 446.365C385.443 446.276 385.548 446.204 385.664 446.156C385.78 446.107 385.905 446.081 386.031 446.081H386.041L605.045 445.833C605.299 445.834 605.542 445.936 605.721 446.116C605.9 446.296 606 446.539 606 446.793C606 447.046 605.9 447.29 605.721 447.469C605.542 447.649 605.299 447.751 605.045 447.752Z" fill="#C8E7CD"/>
<path d="M342.818 125.481H341.206V10.196H404.596V11.8079H342.818V125.481Z" fill="#3F3D56"/>
<path d="M453.895 0H411.182C408.404 0 405.739 1.10386 403.774 3.06874C401.809 5.03361 400.706 7.69855 400.706 10.4773C400.706 13.2561 401.809 15.921 403.774 17.8859C405.739 19.8508 408.404 20.9546 411.182 20.9546H453.895C456.674 20.9546 459.339 19.8508 461.303 17.8859C463.268 15.921 464.372 13.2561 464.372 10.4773C464.372 7.69855 463.268 5.03361 461.303 3.06874C459.339 1.10386 456.674 0 453.895 0Z" fill="#19A52F"/>
<path d="M341.077 136.028C346.394 136.028 350.704 131.717 350.704 126.4C350.704 121.083 346.394 116.772 341.077 116.772C335.76 116.772 331.45 121.083 331.45 126.4C331.45 131.717 335.76 136.028 341.077 136.028Z" fill="#19A52F"/>
<path d="M225.066 162.577L267.301 152.804L279.423 149.998C280.94 149.647 280.31 147.312 278.793 147.664L236.558 157.437L224.436 160.243C222.919 160.594 223.549 162.929 225.066 162.577Z" fill="#C8E7CD"/>
<path d="M268.679 137.124L291.288 147.525C292.06 147.792 292.783 148.183 293.428 148.683C294.052 149.294 293.598 149.882 293.088 150.415C291.567 151.836 289.96 153.163 288.276 154.387L278.643 162.219C277.434 163.202 279.14 164.917 280.338 163.944L288.728 157.122L292.923 153.712C294.111 152.746 295.558 151.76 296.035 150.22C297.039 146.986 293.079 145.701 290.878 144.688L281.032 140.159L269.91 135.042C268.508 134.397 267.266 136.474 268.679 137.124Z" fill="#C8E7CD"/>
<path d="M580.687 216.303C576.659 213.572 571.766 212.557 566.983 212.213C561.546 211.917 556.097 211.923 550.662 212.232C545.015 212.455 539.38 212.864 533.756 213.458C528.141 214.052 522.549 214.831 516.98 215.794C511.995 216.57 507.061 217.65 502.207 219.028C497.613 220.299 493.285 222.389 489.432 225.197C486.05 227.741 483.449 231.182 481.925 235.13C480.429 238.833 480.174 242.921 481.2 246.781C481.747 248.656 482.682 250.394 483.946 251.883C485.407 253.516 487.138 254.887 489.062 255.934C493.058 258.216 497.585 259.588 501.199 262.509C502.152 263.273 503.021 264.137 503.791 265.085C504.313 265.819 505.036 266.388 505.872 266.723C506.664 267 507.521 267.036 508.334 266.827C509.147 266.617 509.88 266.172 510.44 265.547C511.164 264.556 511.768 263.483 512.238 262.35L514.145 258.672C514.272 258.35 514.432 258.042 514.621 257.752C514.764 257.582 514.509 257.756 514.557 257.711C514.584 257.686 514.639 257.687 514.67 257.667C514.828 257.589 514.993 257.525 515.162 257.478C516.926 256.806 518.697 256.155 520.477 255.524C527.044 253.184 533.691 251.026 540.442 249.279C543.916 248.347 547.44 247.609 550.997 247.07C555.603 246.414 560.279 246.49 564.906 246.042C569.888 245.559 575.029 244.551 579.301 241.807C582.834 239.66 585.555 236.403 587.039 232.545C587.683 230.706 587.903 228.746 587.685 226.81C587.13 222.43 584.268 218.731 580.687 216.303Z" fill="#C8E7CD"/>
<path d="M572.443 218.764C568.803 216.296 564.381 215.379 560.059 215.068C555.146 214.8 550.222 214.806 545.31 215.085C540.208 215.287 535.115 215.657 530.033 216.193C524.959 216.73 519.905 217.434 514.873 218.304C510.368 219.006 505.91 219.982 501.523 221.226C497.371 222.376 493.46 224.264 489.979 226.802C486.922 229.1 484.572 232.21 483.195 235.778C481.843 239.124 481.613 242.819 482.54 246.306C483.034 248.001 483.879 249.572 485.021 250.917C486.341 252.393 487.905 253.631 489.645 254.578C493.255 256.64 497.347 257.879 500.612 260.519C501.474 261.21 502.259 261.99 502.954 262.847C503.426 263.511 504.079 264.024 504.835 264.327C505.551 264.577 506.325 264.61 507.06 264.421C507.795 264.232 508.457 263.829 508.963 263.264C509.617 262.369 510.163 261.4 510.588 260.376L512.311 257.052C512.426 256.761 512.57 256.482 512.741 256.221C512.87 256.067 512.64 256.224 512.684 256.183C512.708 256.161 512.758 256.162 512.786 256.144C512.928 256.073 513.077 256.016 513.23 255.973C514.824 255.366 516.425 254.777 518.033 254.207C523.968 252.092 529.974 250.142 536.075 248.563C539.215 247.721 542.399 247.055 545.613 246.568C549.776 245.975 554.001 246.044 558.183 245.638C562.685 245.202 567.33 244.291 571.191 241.812C574.383 239.872 576.843 236.928 578.184 233.441C578.765 231.78 578.965 230.008 578.767 228.259C578.266 224.301 575.68 220.958 572.443 218.764Z" fill="white"/>
<path d="M564.819 223.22L505.504 234.161C505.334 234.193 505.16 234.192 504.991 234.157C504.822 234.122 504.662 234.053 504.519 233.956C504.376 233.859 504.254 233.734 504.16 233.59C504.065 233.445 504 233.284 503.968 233.114C503.936 232.944 503.938 232.77 503.974 232.601C504.01 232.432 504.078 232.271 504.176 232.129C504.274 231.987 504.399 231.865 504.544 231.771C504.688 231.677 504.85 231.612 505.02 231.581L505.028 231.58L564.343 220.639C564.513 220.608 564.687 220.61 564.855 220.646C565.024 220.682 565.184 220.751 565.326 220.849C565.468 220.947 565.589 221.071 565.683 221.216C565.776 221.361 565.841 221.522 565.872 221.692C565.903 221.861 565.901 222.035 565.865 222.204C565.829 222.372 565.76 222.532 565.662 222.674C565.565 222.816 565.44 222.937 565.295 223.031C565.151 223.125 564.989 223.189 564.819 223.22Z" fill="#C8E7CD"/>
<path d="M566.281 231.142L506.965 242.083C506.796 242.115 506.621 242.114 506.452 242.079C506.283 242.043 506.123 241.975 505.98 241.878C505.837 241.781 505.715 241.656 505.621 241.512C505.526 241.367 505.461 241.205 505.43 241.036C505.398 240.866 505.4 240.692 505.435 240.523C505.471 240.354 505.54 240.193 505.637 240.051C505.735 239.909 505.86 239.787 506.005 239.693C506.15 239.599 506.312 239.534 506.481 239.503L506.489 239.502L565.805 228.561C565.974 228.53 566.148 228.532 566.317 228.568C566.485 228.604 566.645 228.673 566.787 228.771C566.929 228.869 567.05 228.993 567.144 229.138C567.237 229.283 567.302 229.444 567.333 229.614C567.364 229.783 567.362 229.957 567.326 230.126C567.29 230.294 567.221 230.454 567.123 230.596C567.026 230.738 566.901 230.859 566.756 230.953C566.612 231.047 566.45 231.111 566.281 231.142Z" fill="#C8E7CD"/>
<path d="M515.339 248.73L508.426 250.005C508.084 250.067 507.732 249.99 507.447 249.793C507.161 249.595 506.965 249.293 506.902 248.951C506.839 248.61 506.914 248.257 507.111 247.971C507.307 247.685 507.609 247.488 507.95 247.424L514.862 246.149C515.204 246.086 515.557 246.162 515.843 246.36C516.129 246.557 516.325 246.86 516.388 247.202C516.451 247.544 516.376 247.896 516.179 248.183C515.982 248.469 515.68 248.666 515.339 248.73Z" fill="#C8E7CD"/>
<path d="M510.331 281.664C513.36 281.106 515.363 278.197 514.805 275.167C514.246 272.137 511.337 270.134 508.307 270.693C505.278 271.252 503.275 274.161 503.834 277.19C504.393 280.22 507.301 282.223 510.331 281.664Z" fill="#D1D3D4"/>
<path d="M203.363 160.079H152.699C150.347 160.076 148.092 159.141 146.429 157.478C144.766 155.815 143.83 153.56 143.827 151.207V117.815C143.83 115.463 144.766 113.208 146.429 111.545C148.092 109.882 150.347 108.946 152.699 108.943H203.363C205.715 108.946 207.969 109.882 209.632 111.545C211.296 113.208 212.231 115.463 212.234 117.815V151.208C212.231 153.56 211.296 155.815 209.632 157.478C207.969 159.141 205.715 160.076 203.363 160.079Z" fill="#C8E7CD"/>
<path d="M197.795 158.28H153.701C151.654 158.278 149.692 157.463 148.245 156.016C146.797 154.568 145.983 152.606 145.981 150.559V121.497C145.983 119.45 146.797 117.487 148.245 116.04C149.692 114.592 151.654 113.778 153.701 113.776H197.795C199.842 113.778 201.805 114.592 203.252 116.04C204.699 117.487 205.514 119.45 205.516 121.497V150.559C205.514 152.606 204.699 154.568 203.252 156.016C201.805 157.463 199.842 158.278 197.795 158.28Z" fill="white"/>
<path d="M210.499 190.164H145.49C145.088 190.163 144.703 190.002 144.42 189.718C144.136 189.434 143.977 189.048 143.977 188.647C143.977 188.245 144.136 187.86 144.42 187.575C144.703 187.291 145.088 187.131 145.49 187.13H210.499C210.9 187.131 211.285 187.291 211.569 187.575C211.853 187.86 212.012 188.245 212.012 188.647C212.012 189.048 211.853 189.434 211.569 189.718C211.285 190.002 210.9 190.163 210.499 190.164Z" fill="#C8E7CD"/>
<path d="M210.499 181.495H145.49C145.088 181.494 144.703 181.334 144.42 181.05C144.136 180.765 143.977 180.38 143.977 179.978C143.977 179.577 144.136 179.191 144.42 178.907C144.703 178.623 145.088 178.462 145.49 178.461H210.499C210.9 178.462 211.285 178.623 211.569 178.907C211.853 179.191 212.012 179.577 212.012 179.978C212.012 180.38 211.853 180.765 211.569 181.05C211.285 181.334 210.9 181.494 210.499 181.495Z" fill="#C8E7CD"/>
<path d="M210.499 198.832H145.49C145.088 198.832 144.702 198.672 144.417 198.388C144.133 198.103 143.973 197.717 143.973 197.315C143.973 196.913 144.133 196.527 144.417 196.242C144.702 195.958 145.088 195.798 145.49 195.798H210.499C210.901 195.798 211.287 195.958 211.571 196.242C211.856 196.527 212.016 196.913 212.016 197.315C212.016 197.717 211.856 198.103 211.571 198.388C211.287 198.672 210.901 198.832 210.499 198.832Z" fill="#C8E7CD"/>
<path d="M210.499 207.5H145.49C145.088 207.5 144.702 207.34 144.417 207.056C144.133 206.771 143.973 206.386 143.973 205.983C143.973 205.581 144.133 205.195 144.417 204.911C144.702 204.626 145.088 204.466 145.49 204.466H210.499C210.901 204.466 211.287 204.626 211.571 204.911C211.856 205.195 212.016 205.581 212.016 205.983C212.016 206.386 211.856 206.771 211.571 207.056C211.287 207.34 210.901 207.5 210.499 207.5Z" fill="#C8E7CD"/>
<path d="M210.499 216.168H145.49C145.088 216.168 144.702 216.009 144.417 215.724C144.133 215.44 143.973 215.054 143.973 214.651C143.973 214.249 144.133 213.863 144.417 213.579C144.702 213.294 145.088 213.135 145.49 213.135H210.499C210.901 213.135 211.287 213.294 211.571 213.579C211.856 213.863 212.016 214.249 212.016 214.651C212.016 215.054 211.856 215.44 211.571 215.724C211.287 216.009 210.901 216.168 210.499 216.168Z" fill="#C8E7CD"/>
<path d="M210.499 224.837H145.49C145.088 224.836 144.703 224.676 144.42 224.391C144.136 224.107 143.977 223.722 143.977 223.32C143.977 222.918 144.136 222.533 144.42 222.249C144.703 221.964 145.088 221.804 145.49 221.803H210.499C210.9 221.804 211.285 221.964 211.569 222.249C211.853 222.533 212.012 222.918 212.012 223.32C212.012 223.722 211.853 224.107 211.569 224.391C211.285 224.676 210.9 224.836 210.499 224.837Z" fill="#C8E7CD"/>
<path d="M174.744 204.957H176.356V267.05H59.7763V265.438H174.744V204.957Z" fill="#3F3D56"/>
<path d="M10.4767 277.246H53.1897C55.9683 277.246 58.6331 276.142 60.5979 274.177C62.5626 272.212 63.6664 269.547 63.6664 266.768C63.6664 263.99 62.5626 261.325 60.5979 259.36C58.6331 257.395 55.9683 256.291 53.1897 256.291H10.4767C7.69814 256.291 5.03334 257.395 3.06857 259.36C1.1038 261.325 -4.76837e-06 263.99 -4.76837e-06 266.768C-4.76837e-06 269.547 1.1038 272.212 3.06857 274.177C5.03334 276.142 7.69814 277.246 10.4767 277.246Z" fill="#19A52F"/>
<path d="M176.672 209.636C181.989 209.636 186.3 205.325 186.3 200.008C186.3 194.691 181.989 190.38 176.672 190.38C171.355 190.38 167.045 194.691 167.045 200.008C167.045 205.325 171.355 209.636 176.672 209.636Z" fill="#19A52F"/>
<path d="M226.433 202.684C240.567 205.688 236.972 206.274 251.106 209.278L263.278 211.865C264.8 212.189 265.217 209.807 263.694 209.483C249.56 206.479 253.155 205.892 239.021 202.888L226.849 200.301C225.327 199.978 224.91 202.36 226.433 202.684Z" fill="#C8E7CD"/>
<path d="M258.988 195.654L275.075 214.644C275.661 215.212 276.15 215.872 276.523 216.599C276.83 217.417 276.17 217.757 275.483 218.024C273.503 218.668 271.486 219.19 269.442 219.587L257.401 222.608C255.89 222.988 256.71 225.264 258.207 224.888L268.695 222.257L273.938 220.942C275.424 220.569 277.152 220.287 278.236 219.095C280.513 216.589 277.469 213.749 275.903 211.9L268.898 203.631L260.985 194.289C259.987 193.111 257.983 194.467 258.988 195.654Z" fill="#C8E7CD"/>
<path d="M309.993 278.434C322.358 278.434 332.381 268.41 332.381 256.045C332.381 243.68 322.358 233.656 309.993 233.656C297.628 233.656 287.605 243.68 287.605 256.045C287.605 268.41 297.628 278.434 309.993 278.434Z" fill="#C8E7CD"/>
<path d="M307.811 275.58C317.211 275.58 324.831 267.959 324.831 258.559C324.831 249.158 317.211 241.538 307.811 241.538C298.411 241.538 290.791 249.158 290.791 258.559C290.791 267.959 298.411 275.58 307.811 275.58Z" fill="white"/>
<path d="M304.757 270.211C304.37 270.211 303.989 270.121 303.643 269.949C303.297 269.776 302.997 269.524 302.765 269.215L296.657 261.071C296.461 260.809 296.318 260.512 296.237 260.195C296.155 259.878 296.137 259.548 296.183 259.225C296.229 258.901 296.339 258.589 296.505 258.308C296.672 258.026 296.892 257.78 297.153 257.584C297.415 257.388 297.713 257.245 298.029 257.163C298.346 257.082 298.676 257.064 299 257.11C299.323 257.156 299.635 257.266 299.916 257.432C300.198 257.599 300.444 257.819 300.64 258.08L300.642 258.082L304.638 263.41L314.901 248.015C315.082 247.742 315.315 247.508 315.587 247.326C315.859 247.143 316.164 247.016 316.485 246.952C316.805 246.888 317.136 246.887 317.457 246.951C317.778 247.014 318.084 247.14 318.356 247.322C318.628 247.503 318.862 247.737 319.044 248.009C319.226 248.281 319.353 248.586 319.417 248.907C319.481 249.228 319.481 249.559 319.417 249.88C319.353 250.201 319.227 250.506 319.045 250.778L306.829 269.102C306.608 269.434 306.311 269.707 305.963 269.9C305.614 270.093 305.224 270.2 304.826 270.211C304.803 270.211 304.78 270.211 304.757 270.211Z" fill="#C8E7CD"/>
<path d="M519.043 279.11C519.764 278.686 520.383 278.109 520.857 277.42C521.331 276.731 521.648 275.946 521.786 275.121C521.923 274.296 521.879 273.451 521.655 272.646C521.431 271.84 521.033 271.093 520.489 270.458L538.465 239.044L527.918 239.617L512.075 270.059C511.068 271.044 510.458 272.363 510.359 273.768C510.261 275.172 510.68 276.564 511.539 277.679C512.398 278.795 513.637 279.557 515.02 279.82C516.402 280.084 517.834 279.831 519.043 279.11Z" fill="#FFB8B8"/>
<path d="M498.796 168.997C498.796 168.997 517.834 162.876 522.731 177.566C527.627 192.256 544.088 232.043 544.088 232.043L526.403 268.156L518.446 259.587L526.95 234.491L502.468 197.765L498.796 168.997Z" fill="#3F3D56"/>
<path d="M527.01 264.468C526.437 263.498 525.71 262.628 524.857 261.892L518.783 256.045L518.445 256.798C517.822 257.779 517.414 258.88 517.246 260.03C517.079 261.18 517.156 262.352 517.473 263.469C517.791 264.587 518.34 265.625 519.087 266.515C519.833 267.405 520.759 268.128 521.804 268.635C522.696 269.104 523.702 269.311 524.707 269.235C525.207 269.191 525.69 269.03 526.116 268.764C526.542 268.498 526.899 268.135 527.157 267.704C527.394 267.192 527.504 266.631 527.478 266.068C527.453 265.505 527.292 264.956 527.01 264.468Z" fill="#C8E7CD"/>
<path d="M309.799 286.166H308.187V348.258H362.712V346.646H309.799V286.166Z" fill="#3F3D56"/>
<path d="M422.489 347.977C422.486 345.199 421.381 342.536 419.417 340.572C417.453 338.607 414.79 337.503 412.012 337.5H369.299C366.52 337.5 363.856 338.604 361.891 340.569C359.926 342.534 358.822 345.199 358.822 347.977C358.822 350.756 359.926 353.421 361.891 355.386C363.856 357.351 366.52 358.455 369.299 358.455H412.012C414.79 358.452 417.453 357.347 419.417 355.383C421.381 353.419 422.486 350.755 422.489 347.977Z" fill="#19A52F"/>
<path d="M307.871 290.845C313.188 290.845 317.498 286.534 317.498 281.217C317.498 275.9 313.188 271.589 307.871 271.589C302.554 271.589 298.244 275.9 298.244 281.217C298.244 286.534 302.554 290.845 307.871 290.845Z" fill="#19A52F"/>
</g>
<defs>
<clipPath id="clip0_37_894">
<rect width="606" height="448" fill="white"/>
</clipPath>
</defs>
</svg>
