<svg width="793" height="552" viewBox="0 0 793 552" fill="none" xmlns="http://www.w3.org/2000/svg">
<mask id="mask0_2791_676" style="mask-type:luminance" maskUnits="userSpaceOnUse" x="0" y="0" width="793" height="552">
<path d="M793 0H0V551.732H793V0Z" fill="white"/>
</mask>
<g mask="url(#mask0_2791_676)">
<path d="M158 554.731C245.261 554.731 316 549.359 316 542.731C316 536.104 245.261 530.731 158 530.731C70.739 530.731 0 536.104 0 542.731C0 549.359 70.739 554.731 158 554.731Z" fill="#010101"/>
<path d="M120.772 125.419C148.269 113.724 182.517 121.134 215.963 126.277C216.275 120.049 220.047 112.469 216.095 108.124C211.294 102.845 211.736 97.2985 214.625 91.72C222.013 77.455 211.428 62.2763 200.741 49.6553C198.332 46.8171 195.288 44.587 191.855 43.1462C188.423 41.7055 184.699 41.0947 180.986 41.3636L161.188 42.7777C156.371 43.1218 151.773 44.9289 148.011 47.9574C144.248 50.9858 141.501 55.091 140.135 59.7238C135.408 66.153 132.878 72.5644 134.471 78.9423C127.39 83.7812 126.201 89.6221 129.382 96.2068C132.08 100.353 132.052 104.388 129.26 108.312C125.593 113.315 122.784 118.893 120.949 124.818L120.772 125.419Z" fill="#4C475D"/>
<path d="M774.209 479.963H213.791C208.807 479.963 204.028 477.983 200.504 474.459C196.98 470.935 195 466.155 195 461.171C398.151 437.561 597.485 437.561 793 461.171C793 466.155 791.02 470.935 787.496 474.459C783.972 477.983 779.193 479.963 774.209 479.963Z" fill="#373735"/>
<path d="M793 462.277L195 461.172L264.306 344.556L264.638 344.004V86.9964C264.637 83.8769 265.252 80.7878 266.445 77.9057C267.639 75.0236 269.389 72.4049 271.595 70.1991C273.8 67.9932 276.419 66.2435 279.301 65.0498C282.183 63.8562 285.272 63.2419 288.392 63.2422H696.292C699.412 63.2419 702.501 63.8562 705.383 65.0498C708.265 66.2435 710.883 67.9932 713.089 70.1991C715.295 72.4049 717.045 75.0236 718.239 77.9057C719.432 80.7878 720.046 83.8769 720.046 86.9964V345.772L793 462.277Z" fill="#515153"/>
<path d="M287.85 79.8223C285.799 79.8246 283.832 80.6405 282.382 82.0911C280.931 83.5416 280.115 85.5084 280.113 87.5598V321.896C280.115 323.948 280.931 325.914 282.382 327.365C283.832 328.815 285.799 329.631 287.85 329.634H700.15C702.201 329.631 704.168 328.815 705.618 327.365C707.069 325.914 707.885 323.948 707.887 321.896V87.5598C707.885 85.5084 707.069 83.5417 705.618 82.0912C704.168 80.6406 702.201 79.8247 700.15 79.8223H287.85Z" fill="#170C4E"/>
<path d="M289.578 360.584C288.944 360.585 288.324 360.767 287.79 361.109C287.256 361.451 286.831 361.939 286.565 362.514L265.21 408.939C264.977 409.444 264.876 410 264.914 410.555C264.953 411.11 265.13 411.646 265.43 412.114C265.73 412.582 266.143 412.968 266.631 413.235C267.119 413.501 267.666 413.641 268.222 413.641H717.314C717.879 413.641 718.435 413.497 718.929 413.222C719.423 412.946 719.838 412.549 720.135 412.068C720.432 411.588 720.601 411.039 720.627 410.474C720.652 409.909 720.532 409.348 720.279 408.842L697.067 362.417C696.793 361.865 696.37 361.401 695.846 361.077C695.322 360.753 694.718 360.582 694.102 360.584H289.578Z" fill="#393939"/>
<path d="M492.342 75.9541C495.089 75.9541 497.316 73.7271 497.316 70.98C497.316 68.2328 495.089 66.0059 492.342 66.0059C489.595 66.0059 487.368 68.2328 487.368 70.98C487.368 73.7271 489.595 75.9541 492.342 75.9541Z" fill="white"/>
<path d="M448.2 422.484C447.471 422.485 446.763 422.726 446.184 423.169C445.605 423.613 445.189 424.234 444.998 424.938L439.642 444.834C439.509 445.326 439.492 445.841 439.59 446.341C439.689 446.84 439.902 447.31 440.211 447.714C440.521 448.118 440.919 448.445 441.376 448.671C441.832 448.896 442.334 449.013 442.843 449.013H544.717C545.246 449.013 545.767 448.887 546.237 448.644C546.707 448.402 547.112 448.051 547.418 447.62C547.725 447.19 547.924 446.692 547.999 446.169C548.074 445.645 548.023 445.112 547.85 444.612L540.963 424.716C540.737 424.064 540.314 423.499 539.752 423.099C539.191 422.7 538.519 422.485 537.829 422.484H448.2Z" fill="#393939"/>
<path d="M720.046 340.135V344.556H264.306L264.649 344.004V340.135H720.046Z" fill="#515153"/>
<path d="M707.335 157.75C750.068 157.75 784.71 123.108 784.71 80.3752C784.71 37.6421 750.068 3 707.335 3C664.602 3 629.959 37.6421 629.959 80.3752C629.959 123.108 664.602 157.75 707.335 157.75Z" fill="#B92259"/>
<path d="M739.39 114.089H675.279C674.107 114.088 672.983 113.622 672.154 112.793C671.325 111.964 670.859 110.84 670.857 109.668V70.98C670.859 69.8078 671.325 68.6839 672.154 67.855C672.983 67.0261 674.107 66.5598 675.279 66.5586H739.39C740.562 66.5598 741.686 67.0261 742.515 67.855C743.344 68.6839 743.81 69.8078 743.811 70.98V109.668C743.81 110.84 743.344 111.964 742.515 112.793C741.686 113.622 740.562 114.088 739.39 114.089ZM675.279 70.9801V109.668H739.393L739.39 70.98L675.279 70.9801Z" fill="white"/>
<path d="M727.231 70.9795H687.438V53.2937C687.438 40.4839 695.805 31.1865 707.333 31.1865C718.862 31.1865 727.231 40.4839 727.231 53.2937V70.9795ZM691.859 66.5581H722.81V53.2937C722.81 42.8807 716.446 35.608 707.335 35.608C698.223 35.608 691.859 42.8808 691.859 53.2937V66.5581Z" fill="white"/>
<path d="M707.335 93.6398C709.776 93.6398 711.756 91.6602 711.756 89.2183C711.756 86.7764 709.776 84.7969 707.335 84.7969C704.893 84.7969 702.913 86.7764 702.913 89.2183C702.913 91.6602 704.893 93.6398 707.335 93.6398Z" fill="white"/>
<path d="M653.32 250.149H334.68C333.116 250.147 331.616 249.525 330.51 248.419C329.403 247.313 328.781 245.813 328.779 244.248V165.207C328.781 163.643 329.403 162.143 330.51 161.037C331.616 159.931 333.116 159.308 334.68 159.307H653.32C654.884 159.308 656.384 159.931 657.49 161.037C658.596 162.143 659.219 163.643 659.221 165.207V244.248C659.219 245.813 658.596 247.313 657.49 248.419C656.384 249.525 654.884 250.147 653.32 250.149ZM334.68 161.667C333.741 161.668 332.841 162.041 332.178 162.705C331.514 163.369 331.141 164.269 331.14 165.207V244.248C331.141 245.187 331.514 246.087 332.178 246.751C332.841 247.414 333.741 247.788 334.68 247.789H653.32C654.259 247.788 655.158 247.414 655.822 246.751C656.486 246.087 656.859 245.187 656.86 244.248V165.207C656.859 164.269 656.486 163.369 655.822 162.705C655.158 162.041 654.259 161.668 653.32 161.667H334.68Z" fill="#E6E6E6"/>
<path d="M384.19 225.732C397.465 225.732 408.227 214.971 408.227 201.696C408.227 188.421 397.465 177.659 384.19 177.659C370.915 177.659 360.154 188.421 360.154 201.696C360.154 214.971 370.915 225.732 384.19 225.732Z" fill="#E6E6E6"/>
<path d="M439.703 185.671C439.176 185.67 438.655 185.773 438.168 185.974C437.681 186.175 437.239 186.47 436.866 186.842C436.493 187.214 436.198 187.656 435.996 188.142C435.794 188.629 435.69 189.15 435.69 189.677C435.69 190.204 435.794 190.725 435.996 191.211C436.198 191.698 436.493 192.14 436.866 192.512C437.239 192.884 437.681 193.179 438.168 193.38C438.655 193.581 439.176 193.684 439.703 193.683H628.561C629.623 193.683 630.642 193.261 631.393 192.51C632.145 191.758 632.567 190.739 632.567 189.677C632.567 188.614 632.145 187.596 631.393 186.844C630.642 186.093 629.623 185.671 628.561 185.671H439.703Z" fill="#E6E6E6"/>
<path d="M439.703 209.708C438.64 209.708 437.621 210.13 436.87 210.881C436.119 211.633 435.697 212.652 435.697 213.714C435.697 214.777 436.119 215.796 436.87 216.547C437.621 217.298 438.64 217.72 439.703 217.72H520.969C522.031 217.72 523.05 217.298 523.802 216.547C524.553 215.796 524.975 214.777 524.975 213.714C524.975 212.652 524.553 211.633 523.802 210.881C523.05 210.13 522.031 209.708 520.969 209.708H439.703Z" fill="#E6E6E6"/>
<path d="M263.522 211.328L204.619 242.644L203.873 216.547C223.099 213.338 241.39 207.75 258.302 198.653L264.463 183.433C265.134 181.774 266.225 180.319 267.629 179.209C269.033 178.1 270.701 177.375 272.469 177.105C274.238 176.834 276.046 177.029 277.717 177.669C279.388 178.309 280.864 179.372 281.999 180.755C283.661 182.778 284.492 185.356 284.323 187.969C284.154 190.581 282.999 193.031 281.091 194.824L263.522 211.328Z" fill="#F7B8B3"/>
<path d="M119.598 392.133C119.168 390.557 119.077 388.908 119.33 387.294C119.584 385.68 120.176 384.138 121.067 382.77L134.007 362.912C137.067 358.215 141.763 354.823 147.184 353.393C152.604 351.963 158.363 352.597 163.342 355.173C157.904 364.429 158.662 372.55 165.22 379.606C155.039 384.576 145.63 390.991 137.284 398.651C135.76 399.69 134.01 400.35 132.18 400.575C130.35 400.801 128.492 400.586 126.762 399.948C125.031 399.31 123.479 398.268 122.232 396.909C120.986 395.55 120.083 393.912 119.598 392.133Z" fill="#2F2E41"/>
<path d="M266.205 366.169C264.247 369.432 261.483 372.137 258.178 374.025C254.874 375.912 251.139 376.919 247.334 376.948L161.374 377.599L157.646 355.976L195.672 344.792L163.61 320.187L198.654 279.179L262.304 338.503C266.024 341.97 268.441 346.61 269.151 351.645C269.861 356.681 268.821 361.808 266.205 366.169Z" fill="#181A19"/>
<path d="M147.953 514.046H127.821C109.746 390.148 91.3473 265.904 145.716 219.53L209.838 229.969L201.637 284.398L165.847 325.407L147.953 514.046Z" fill="#181A19"/>
<path d="M165.649 542.112C164.073 542.542 162.424 542.633 160.81 542.38C159.196 542.127 157.655 541.535 156.286 540.643L134.427 537.705C129.73 534.645 126.338 529.949 124.907 524.529C123.477 519.108 124.111 513.35 126.686 508.371C135.943 513.808 144.063 513.05 151.12 506.491C156.106 516.559 164.321 515.945 172.166 524.426C173.205 525.95 173.865 527.7 174.091 529.53C174.316 531.36 174.101 533.218 173.464 534.948C172.826 536.678 171.784 538.231 170.425 539.477C169.066 540.724 167.428 541.627 165.649 542.112Z" fill="#2F2E41"/>
<path d="M195.672 136.767L158.391 127.82C164.583 115.146 165.093 101.044 162.119 86.0659L187.47 85.3203C188.264 103.946 190.667 121.347 195.672 136.767Z" fill="#F7B8B3"/>
<path d="M205.917 252.418C178.779 270.911 159.603 253.051 144.97 225.495C147.003 208.633 143.711 188.454 137.613 166.528C134.901 156.857 135.914 146.521 140.451 137.561C144.988 128.6 152.719 121.666 162.119 118.127L194.18 131.548C221.404 153.738 226.762 177.775 216.548 203.126L205.917 252.418Z" fill="#6D52DD"/>
<path d="M127.821 155.408L97.9969 171.066L150.935 202.381L158.301 220.551C158.793 221.763 159.032 223.063 159.005 224.372C158.978 225.68 158.684 226.969 158.143 228.16C157.601 229.352 156.822 230.42 155.854 231.3C154.886 232.181 153.749 232.855 152.512 233.282C151.106 233.766 149.606 233.919 148.131 233.728C146.656 233.537 145.245 233.006 144.009 232.179C142.773 231.351 141.745 230.249 141.006 228.958C140.268 227.667 139.838 226.222 139.75 224.737L139.005 212.074L71.7216 189.87C69.4547 189.122 67.3877 187.868 65.6772 186.203C63.9667 184.538 62.6576 182.505 61.849 180.259C60.6703 176.985 60.6103 173.413 61.6784 170.101C62.7464 166.789 64.8822 163.925 67.7516 161.956L121.856 124.838L127.821 155.408Z" fill="#F7B8B3"/>
<path d="M157.646 158.39C145.207 152.939 133.896 158.86 119.62 163.609L117.383 124.092C131.559 116.536 145.075 114.499 157.646 120.364V158.39Z" fill="#6D52DD"/>
<path d="M172.525 104.894C185.67 104.894 196.327 94.2377 196.327 81.0921C196.327 67.9466 185.67 57.29 172.525 57.29C159.379 57.29 148.723 67.9466 148.723 81.0921C148.723 94.2377 159.379 104.894 172.525 104.894Z" fill="#F7B8B3"/>
<path d="M201 78.0892C177.434 80.3973 159.477 76.5432 148 65.5692V56.7314H199L201 78.0892Z" fill="#4C475D"/>
</g>
</svg>
