<svg width="869" height="580" viewBox="0 0 869 580" fill="none" xmlns="http://www.w3.org/2000/svg">
<g clip-path="url(#clip0_409_370)" filter="url(#filter0_d_409_370)">
<path d="M439.735 160.527C432.066 147.843 422.978 134.299 408.746 130.158C392.264 125.361 375.333 134.889 360.971 144.292C318.022 172.412 276.661 202.886 237.078 235.575L237.121 236.068C267.938 233.942 298.755 231.817 329.572 229.692C351.837 228.157 374.868 226.409 394.544 215.876C402.011 211.88 409.289 206.541 417.75 206.169C428.261 205.706 437.427 213.048 444.63 220.718C487.237 266.089 499.567 335.472 547.368 375.334C517.226 300.999 481.236 229.171 439.735 160.527Z" fill="#C8E7CD"/>
<path d="M701.636 545.355C696.925 539.406 694.999 538.012 690.352 532.008C652.509 483.064 616.94 432.466 583.644 380.215C561.028 344.729 539.534 308.561 519.161 271.711C509.462 254.192 500.029 236.536 490.861 218.742C483.748 204.946 476.793 191.066 469.997 177.104C468.053 173.117 466.165 169.111 464.286 165.095C459.858 155.653 455.512 146.165 450.846 136.851C445.529 126.235 439.057 115.106 429.294 107.974C424.85 104.595 419.537 102.55 413.975 102.079C406.027 101.566 398.693 104.848 391.799 108.432C341.361 134.733 294.14 167.708 251.43 205.23C208.61 242.836 170.336 285.322 137.388 331.821C136.38 333.26 133.996 331.885 135.014 330.437C139.02 324.772 143.106 319.167 147.271 313.624C199.059 244.746 262.56 185.515 334.87 138.638C347.036 130.755 359.43 123.24 372.053 116.096C378.415 112.493 384.805 108.936 391.304 105.599C397.676 102.327 404.441 99.3839 411.72 99.2739C436.49 98.8889 449.315 126.941 458.125 145.816C460.894 151.757 463.696 157.679 466.531 163.583C477.248 185.997 488.377 208.206 499.919 230.211C507.042 243.797 514.321 257.303 521.756 270.73C544.894 312.542 569.486 353.508 595.534 393.627C630.04 446.77 664.271 493.716 703.58 543.412C704.662 544.787 702.728 546.749 701.636 545.355Z" fill="#C8E7CD"/>
<path d="M248.982 191.378C247.543 189.774 246.113 188.169 244.664 186.565C233.242 173.933 220.985 161.447 205.3 154.205C197.821 150.642 189.656 148.75 181.373 148.658C172.811 148.686 164.441 150.932 156.53 154.076C152.789 155.57 149.131 157.266 145.529 159.072C141.413 161.144 137.37 163.354 133.346 165.581C125.792 169.761 118.335 174.125 110.977 178.672C96.337 187.72 82.1551 197.459 68.4318 207.888C61.3177 213.297 54.3505 218.883 47.53 224.646C41.1863 230 34.9709 235.497 28.8839 241.138C27.5822 242.339 25.6386 240.396 26.9403 239.195C28.5445 237.7 30.1672 236.215 31.7898 234.749C36.3735 230.605 41.0305 226.541 45.761 222.556C54.3872 215.277 63.2367 208.279 72.3095 201.563C86.4182 191.112 101.012 181.37 116.092 172.337C123.628 167.827 131.268 163.506 139.011 159.375C141.349 158.128 143.714 156.909 146.106 155.754C151.535 153.015 157.176 150.719 162.974 148.887C171.187 146.231 179.877 145.377 188.45 146.385C196.728 147.589 204.703 150.348 211.955 154.516C227.356 163.124 239.301 176.435 250.925 189.425C252.099 190.745 250.164 192.698 248.982 191.378Z" fill="#C8E7CD"/>
<path d="M564.542 322.285L601.447 308.787L619.77 302.085C625.738 299.902 631.691 297.418 637.86 295.855C643.221 294.323 648.913 294.396 654.234 296.063C658.978 297.819 663.321 300.512 667.005 303.98C670.768 307.445 674.269 311.184 677.48 315.166C681.469 319.961 685.399 324.805 689.347 329.633C705.641 349.561 721.829 369.574 737.91 389.675C753.991 409.775 769.964 429.96 785.83 450.231C801.735 470.551 817.53 490.956 833.216 511.446C835.137 513.957 837.057 516.468 838.975 518.981C840.035 520.369 842.425 519 841.35 517.593C825.548 496.896 809.637 476.285 793.615 455.758C777.554 435.182 761.382 414.693 745.099 394.292C728.816 373.891 712.423 353.579 695.92 333.355C691.809 328.316 687.691 323.283 683.566 318.256C680.086 314.015 676.646 309.729 672.829 305.782C665.824 298.537 657.072 292.134 646.595 291.96C640.435 291.858 634.474 293.813 628.751 295.883C622.581 298.115 616.426 300.389 610.265 302.642L573.102 316.235L563.811 319.633C562.163 320.236 562.875 322.895 564.542 322.285Z" fill="#C8E7CD"/>
<path d="M200.443 170.1C181.689 160.461 157.672 162.349 140.438 174.391C173.31 180.063 205.822 187.651 237.809 197.117C224.526 189.333 214.136 177.137 200.443 170.1Z" fill="#C8E7CD"/>
<path d="M140.253 174.358L136.643 177.293C137.864 176.266 139.134 175.303 140.438 174.391C140.376 174.381 140.315 174.369 140.253 174.358Z" fill="#C8E7CD"/>
<path d="M665.615 322.42C661.982 317.998 658.054 313.368 652.621 311.571L647.548 311.771C686.165 380.01 738.322 439.637 800.815 486.992C755.748 432.135 710.682 377.277 665.615 322.42Z" fill="#C8E7CD"/>
<path d="M350.149 285.94C352.497 294.47 357.786 301.894 365.081 306.899C367.901 308.819 371.237 310.661 372.202 313.934C372.71 316.02 372.397 318.221 371.329 320.084C370.262 321.922 368.964 323.616 367.467 325.125L367.331 325.637C360.332 321.49 353.674 316.244 349.808 309.086C345.942 301.928 345.403 292.547 350.149 285.94Z" fill="#C8E7CD"/>
<path d="M583.149 488.941C585.497 497.47 590.786 504.894 598.081 509.899C600.901 511.819 604.237 513.661 605.202 516.934C605.71 519.02 605.397 521.221 604.329 523.084C603.262 524.922 601.964 526.616 600.467 528.125L600.331 528.637C593.332 524.49 586.674 519.244 582.808 512.086C578.942 504.928 578.403 495.547 583.149 488.941Z" fill="#C8E7CD"/>
<path d="M118.15 474.941C120.497 483.47 125.786 490.894 133.081 495.899C135.901 497.819 139.237 499.661 140.202 502.934C140.71 505.02 140.397 507.221 139.329 509.084C138.262 510.922 136.965 512.616 135.467 514.125L135.331 514.637C128.332 510.49 121.674 505.244 117.808 498.086C113.943 490.928 113.403 481.547 118.15 474.941Z" fill="#C8E7CD"/>
<path d="M653.249 102C681.415 102 704.249 79.1665 704.249 51C704.249 22.8335 681.415 0 653.249 0C625.082 0 602.249 22.8335 602.249 51C602.249 79.1665 625.082 102 653.249 102Z" fill="#DEB41E"/>
<path d="M745.284 11.8704C720.567 8.52949 692.349 21.8891 685.943 45.994C684.328 41.7081 681.393 38.0465 677.562 35.538C673.73 33.0295 669.2 31.8041 664.626 32.0388C660.052 32.2735 655.671 33.9562 652.116 36.8437C648.562 39.7312 646.017 43.6741 644.849 48.1027L647.679 50.1293C700.647 61.5836 755.476 61.3357 808.338 49.403C791.145 31.334 770.001 15.2113 745.284 11.8704Z" fill="#E7E7E7"/>
<path d="M639.284 79.8704C614.567 76.5295 586.349 89.8891 579.943 113.994C578.328 109.708 575.393 106.046 571.562 103.538C567.73 101.03 563.2 99.8041 558.626 100.039C554.052 100.274 549.671 101.956 546.116 104.844C542.562 107.731 540.017 111.674 538.849 116.103L541.679 118.129C594.647 129.584 649.476 129.336 702.338 117.403C685.145 99.334 664.001 83.2113 639.284 79.8704Z" fill="#DDDDDD"/>
<path d="M855.011 92.7283C854.909 92.7285 854.807 92.7127 854.709 92.6814C590.303 9.06326 357.265 19.9978 208.33 43.8953C188.061 47.1463 167.738 50.9011 147.926 55.0564C142.868 56.116 137.62 57.2517 132.329 58.4343C126.01 59.8416 119.775 61.2908 113.797 62.74C111.215 63.3513 108.683 63.9676 106.202 64.5886C102.444 65.5164 98.6304 66.4832 94.5425 67.5456C89.9746 68.7234 85.3335 69.9587 80.7451 71.2175C80.7283 71.2234 80.7112 71.2283 80.6939 71.2322L80.6943 71.2332C75.5117 72.6482 70.3564 74.1043 65.3711 75.5584C62.6729 76.3377 60.0674 77.1062 57.5718 77.865C57.293 77.9422 57.0459 78.0164 56.7954 78.0925L56.2593 78.2556C55.9487 78.3503 55.6421 78.4431 55.3355 78.531L55.3159 78.5369L55.3164 78.5379L54.5049 78.7899C53.5371 79.0829 52.5928 79.369 51.6641 79.6541C27.1191 87.2205 13.626 92.6034 13.4927 92.6561C13.3708 92.7049 13.2405 92.7293 13.1092 92.7278C12.9778 92.7263 12.8481 92.6989 12.7274 92.6473C12.6066 92.5956 12.4972 92.5208 12.4054 92.4268C12.3136 92.3329 12.2412 92.2218 12.1924 92.0999C12.1435 91.978 12.1192 91.8477 12.1207 91.7164C12.1222 91.5851 12.1495 91.4554 12.2012 91.3346C12.2528 91.2139 12.3277 91.1045 12.4217 91.0127C12.5156 90.9209 12.6266 90.8485 12.7485 90.7996C12.8828 90.7469 26.4419 85.3368 51.0762 77.742C52.0083 77.4559 52.9551 77.1698 53.9258 76.8758L54.6797 76.6414C54.7056 76.6317 54.7314 76.6239 54.7578 76.616C55.063 76.5291 55.3677 76.4364 55.6772 76.3426L56.2144 76.1795C56.4819 76.0985 56.7456 76.0184 57.0156 75.9442C59.4941 75.1903 62.1084 74.4198 64.8135 73.6375C69.8008 72.1825 74.9609 70.7264 80.1475 69.3094C80.1636 69.3035 80.1802 69.2996 80.1963 69.2948C84.8008 68.0321 89.459 66.7908 94.0415 65.6092C98.1358 64.5457 101.957 63.577 105.721 62.6473C108.213 62.0272 110.749 61.4096 113.331 60.7947C119.316 59.3436 125.563 57.8924 131.894 56.4822C137.193 55.2986 142.449 54.16 147.516 53.0994C167.359 48.9373 187.713 45.1766 208.013 41.9207C357.162 17.9891 590.533 7.03687 855.312 90.7751C855.54 90.847 855.734 90.998 855.86 91.2008C855.986 91.4035 856.036 91.6447 855.999 91.8807C855.963 92.1167 855.843 92.3319 855.662 92.4873C855.481 92.6428 855.25 92.7283 855.011 92.7283Z" fill="#CCCCCC"/>
<path d="M266.989 419.84C266.643 418.827 266.06 417.912 265.289 417.17C265.004 416.906 264.696 416.668 264.369 416.46C261.759 414.72 257.859 414.33 255.379 416.46C255.129 416.677 254.898 416.914 254.689 417.17C253.949 418.08 253.189 418.97 252.409 419.84C251.129 421.3 249.819 422.71 248.449 424.08C248.059 424.46 247.669 424.85 247.269 425.23C247.039 425.46 246.809 425.68 246.579 425.9C245.699 426.74 244.799 427.55 243.889 428.35C243.409 428.78 242.929 429.2 242.439 429.61C241.709 430.22 240.979 430.83 240.239 431.42C240.169 431.47 240.099 431.52 240.029 431.58C240.009 431.59 239.999 431.61 239.979 431.62C239.969 431.62 239.959 431.62 239.949 431.64C239.922 431.651 239.898 431.668 239.879 431.69C239.659 431.84 239.509 431.94 239.399 432.03C239.439 432.01 239.479 431.98 239.519 431.96C239.339 432.1 239.149 432.24 238.969 432.38C237.219 433.67 235.429 434.91 233.599 436.07C229.071 438.968 224.316 441.493 219.379 443.62C219.049 443.75 218.709 443.89 218.369 444.02C205.443 449.315 191.422 451.382 177.519 450.04C176.099 449.93 174.679 449.78 173.259 449.59C171.619 449.35 169.989 449.06 168.369 448.73C162.201 447.499 156.167 445.678 150.349 443.29C143.071 439.957 136.149 435.897 129.689 431.17C128.689 430.46 127.679 429.75 126.669 429.06C127.819 426.24 128.949 423.42 130.049 420.58C130.599 419.21 131.129 417.84 131.649 416.46C135.739 405.83 139.579 395.1 143.259 384.33C146.979 373.42 150.489 362.447 153.789 351.41C154.129 350.29 154.459 349.17 154.779 348.05C156.509 342.22 158.169 336.377 159.759 330.52C159.909 329.95 160.069 329.39 160.209 328.82C160.669 327.14 161.119 325.46 161.559 323.78C162.559 319.99 160.299 315.46 156.319 314.55C154.403 314.059 152.37 314.33 150.651 315.308C148.931 316.285 147.657 317.892 147.099 319.79C146.669 321.41 146.239 323.02 145.799 324.64C143.689 332.47 141.469 340.273 139.139 348.05C138.799 349.17 138.459 350.29 138.119 351.41C132.979 368.35 127.335 385.12 121.189 401.72C120.449 403.73 119.699 405.733 118.939 407.73C118.569 408.71 118.199 409.69 117.819 410.67C117.089 412.6 116.339 414.53 115.589 416.46C115.159 417.59 114.719 418.72 114.279 419.84C113.989 420.55 113.709 421.26 113.429 421.96C110.578 420.936 107.624 420.225 104.619 419.84L104.139 419.78C101.809 419.5 99.4533 419.52 97.1288 419.84C93.6499 420.246 90.3026 421.411 87.3235 423.253C84.3445 425.095 81.8065 427.569 79.8888 430.5C75.1188 438.01 75.1788 448.75 81.8688 455.13C88.7588 461.7 99.1888 461.65 107.299 457.54C111.597 455.215 115.22 451.818 117.819 447.68C118.814 446.18 119.729 444.628 120.559 443.03C120.769 443.17 120.979 443.31 121.189 443.46C121.989 444.02 122.789 444.59 123.579 445.15C128.182 448.485 133.033 451.463 138.089 454.06C148.961 459.465 160.664 463.004 172.709 464.53C172.979 464.56 173.239 464.6 173.509 464.63C174.839 464.8 176.179 464.93 177.519 465.04C196.741 466.489 215.987 462.555 233.099 453.68C234.549 452.93 235.985 452.143 237.409 451.32C239.619 450.04 241.779 448.68 243.889 447.24C245.039 446.46 246.159 445.67 247.269 444.84C252.119 441.267 256.641 437.268 260.779 432.89C262.349 431.24 263.852 429.537 265.289 427.78C266.647 426.343 267.43 424.457 267.489 422.48C267.481 421.577 267.312 420.683 266.989 419.84ZM101.399 443.66C101.609 443.51 101.819 443.35 102.019 443.19C101.959 443.34 101.669 443.51 101.399 443.66ZM104.609 440.43C104.379 440.69 104.169 440.95 103.939 441.21C103.239 441.993 102.487 442.728 101.689 443.41C101.579 443.51 101.459 443.61 101.339 443.7C101.338 443.7 101.336 443.7 101.335 443.701C101.334 443.701 101.333 443.702 101.332 443.703C101.331 443.704 101.33 443.705 101.33 443.706C101.329 443.707 101.329 443.709 101.329 443.71C101.184 443.775 101.044 443.848 100.909 443.93C100.479 444.19 100.039 444.43 99.5888 444.65C98.7078 444.974 97.8013 445.225 96.8788 445.4C96.17 445.452 95.4586 445.458 94.7488 445.42H94.7288C94.239 445.311 93.7551 445.178 93.2788 445.02C93.0388 444.9 92.8088 444.76 92.5788 444.62C92.4888 444.54 92.4088 444.46 92.3588 444.41C92.2611 444.321 92.1709 444.224 92.0889 444.12C92.0889 444.119 92.0887 444.117 92.0882 444.116C92.0877 444.115 92.087 444.114 92.086 444.113C92.0851 444.112 92.084 444.111 92.0827 444.111C92.0815 444.11 92.0802 444.11 92.0789 444.11C91.9688 443.91 91.8488 443.71 91.7389 443.51C91.7332 443.505 91.7296 443.498 91.7289 443.49C91.6489 443.24 91.5789 442.98 91.5189 442.72C91.4972 442.263 91.5005 441.806 91.5289 441.35C91.6631 440.711 91.8435 440.083 92.0689 439.47C92.2714 439.036 92.5018 438.615 92.7589 438.21C92.7789 438.17 92.8789 438.01 92.9889 437.83C92.9989 437.82 92.9989 437.82 92.9989 437.81C93.1489 437.64 93.2989 437.46 93.4589 437.3C93.7289 437 94.0189 436.74 94.3089 436.47C94.8729 436.101 95.4571 435.764 96.0589 435.46C97.0135 435.121 97.9932 434.857 98.9889 434.67C100.457 434.553 101.933 434.567 103.399 434.71C104.787 434.951 106.157 435.288 107.499 435.72C106.686 437.298 105.76 438.815 104.729 440.26C104.689 440.32 104.649 440.38 104.609 440.43ZM93.4888 437.14C93.4007 437.281 93.2967 437.412 93.1788 437.53C93.2582 437.383 93.3632 437.251 93.4888 437.14Z" fill="#9F9F9F"/>
<path d="M236.929 317.71C236.839 320.85 236.749 323.99 236.659 327.13C236.469 334.1 236.272 341.073 236.069 348.05C235.859 355.9 235.639 363.747 235.409 371.59C235.299 375.64 235.185 379.69 235.069 383.74C234.759 394.65 234.452 405.557 234.149 416.46C234.119 417.59 234.079 418.71 234.049 419.84C233.899 425.25 233.749 430.66 233.599 436.07C233.429 441.94 233.262 447.81 233.099 453.68C232.979 458.08 232.855 462.483 232.729 466.89C231.829 498.82 230.929 530.75 230.029 562.68C229.991 564.657 229.188 566.543 227.79 567.941C226.392 569.34 224.506 570.142 222.529 570.18C220.545 570.164 218.646 569.369 217.243 567.966C215.84 566.563 215.045 564.664 215.029 562.68C215.529 544.72 216.035 526.76 216.549 508.8C216.999 492.56 217.455 476.32 217.919 460.08C218.069 454.73 218.219 449.377 218.369 444.02C218.599 435.96 218.825 427.9 219.049 419.84C219.079 418.71 219.119 417.59 219.149 416.46C219.169 415.47 219.199 414.49 219.229 413.5C219.669 397.85 220.109 382.197 220.549 366.54C220.729 360.38 220.902 354.217 221.069 348.05C221.269 341.02 221.469 333.993 221.669 326.97C221.759 323.88 221.839 320.8 221.929 317.71C221.967 315.733 222.769 313.847 224.168 312.449C225.566 311.05 227.452 310.248 229.429 310.21C231.413 310.226 233.311 311.021 234.714 312.424C236.117 313.827 236.913 315.726 236.929 317.71Z" fill="#9F9F9F"/>
<path d="M648.357 319.791C640.492 349.571 631.093 378.924 620.196 407.732C617.189 415.679 614.113 423.609 610.824 431.444L611.58 429.653C610.113 433.385 608.238 436.943 605.991 440.265C605.838 440.479 605.682 440.691 605.524 440.901C606.301 439.907 606.449 439.711 605.967 440.312C605.713 440.613 605.462 440.914 605.199 441.207C604.499 441.991 603.748 442.727 602.95 443.411C602.749 443.582 602.545 443.751 602.338 443.915L603.276 443.186C603.167 443.443 602.403 443.783 602.165 443.929C601.395 444.394 600.591 444.801 599.761 445.147L601.552 444.391C600.191 444.94 598.771 445.329 597.321 445.552L599.315 445.284C597.89 445.481 596.446 445.496 595.017 445.33L597.011 445.598C595.842 445.437 594.698 445.129 593.606 444.681L595.397 445.437C594.815 445.183 594.254 444.884 593.719 444.541C593.447 444.364 592.613 443.732 593.704 444.565C594.837 445.431 593.849 444.64 593.616 444.41C593.422 444.218 593.247 444.01 593.056 443.815C592.174 442.91 594.053 445.371 593.453 444.313C593.133 443.783 592.84 443.237 592.575 442.676L593.331 444.468C592.987 443.615 592.743 442.726 592.603 441.817L592.871 443.81C592.728 442.68 592.727 441.536 592.868 440.406L592.6 442.399C592.783 441.137 593.117 439.902 593.595 438.719L592.839 440.511C593.172 439.715 593.565 438.947 594.017 438.212C594.225 437.833 594.468 437.474 594.745 437.141C594.794 437.157 593.477 438.654 594.176 437.898C594.359 437.7 594.53 437.492 594.715 437.296C595.011 436.982 595.328 436.695 595.64 436.398C596.685 435.404 594.179 437.364 595.384 436.577C596.258 436.003 597.177 435.501 598.133 435.078L596.342 435.834C597.943 435.176 599.621 434.726 601.337 434.494L599.343 434.762C601.491 434.515 603.662 434.541 605.804 434.838L603.81 434.571C606.522 434.982 609.173 435.727 611.702 436.791L609.91 436.034C615.3 438.348 620.073 441.784 624.838 445.152C629.44 448.485 634.29 451.463 639.344 454.059C650.217 459.465 661.92 463.005 673.966 464.533C691.242 466.649 708.772 464.393 724.949 457.971C741.126 451.55 755.431 441.169 766.552 427.781C767.909 426.342 768.69 424.454 768.749 422.477C768.734 420.491 767.946 418.589 766.552 417.174C763.8 414.648 758.603 413.935 755.945 417.174C753.427 420.249 750.72 423.163 747.839 425.901C746.494 427.177 745.113 428.414 743.696 429.611C742.887 430.295 742.067 430.965 741.236 431.622C740.842 431.933 739.617 432.76 741.499 431.425C741.067 431.731 740.654 432.065 740.228 432.379C733.93 437.022 727.105 440.904 719.896 443.944L721.688 443.188C713.951 446.433 705.826 448.659 697.516 449.811L699.51 449.543C690.962 450.667 682.302 450.654 673.757 449.505L675.75 449.773C667.207 448.599 658.852 446.324 650.893 443.002L652.685 443.758C645.005 440.36 637.717 436.139 630.948 431.167C627.426 428.559 623.711 426.221 619.836 424.173C615.321 421.867 610.432 420.381 605.398 419.785C595.959 418.674 586.341 422.35 581.151 430.505C576.376 438.01 576.437 448.749 583.125 455.13C590.013 461.703 600.444 461.647 608.561 457.536C616.378 453.576 621.074 445.35 624.376 437.594C631.807 420.139 638.386 402.28 644.516 384.331C650.58 366.573 656.079 348.635 661.014 330.518C661.625 328.274 662.227 326.028 662.821 323.779C663.822 319.99 661.56 315.459 657.583 314.553C655.666 314.06 653.632 314.33 651.911 315.307C650.19 316.285 648.915 317.892 648.357 319.791Z" fill="#9F9F9F"/>
<path d="M723.189 317.71L720.49 413.503L717.804 508.797L716.286 562.681C716.303 564.664 717.098 566.562 718.501 567.965C719.904 569.368 721.802 570.164 723.786 570.181C725.763 570.142 727.649 569.34 729.047 567.942C730.445 566.543 731.248 564.658 731.286 562.681L733.985 466.887L736.671 371.593L738.189 317.71C738.173 315.726 737.377 313.828 735.974 312.425C734.571 311.022 732.673 310.226 730.689 310.21C728.712 310.248 726.827 311.05 725.428 312.449C724.03 313.847 723.228 315.732 723.189 317.71Z" fill="#9F9F9F"/>
<path opacity="0.2" d="M463.591 535.935H465.92V429.893H520.249V427.571H465.92V382.826H507.876C507.261 382.044 506.628 381.272 505.977 380.509H465.92V350.956C465.15 350.628 464.374 350.311 463.591 350.013V380.509H417.939V342.644C417.157 342.68 416.387 342.734 415.61 342.799V380.509H379.19V352.258C378.408 352.604 377.638 352.969 376.873 353.351V380.509H346.258V382.826H376.873V427.571H346.258V429.893H376.873V535.935H379.19V429.893C383.973 429.892 388.71 430.834 393.129 432.664C397.548 434.494 401.563 437.176 404.945 440.559C408.327 443.941 411.01 447.956 412.84 452.375C414.67 456.794 415.611 461.531 415.61 466.314V535.935H417.939V429.893H463.591V535.935ZM379.19 427.571V382.826H415.61V427.571H379.19ZM417.939 427.571V382.826H418.853C424.728 382.827 430.546 383.984 435.975 386.233C441.403 388.482 446.335 391.778 450.489 395.933C454.643 400.088 457.939 405.02 460.187 410.449C462.435 415.877 463.592 421.695 463.591 427.571H417.939Z" fill="black"/>
<path d="M449.369 504.14C446.437 517.219 439.414 529.023 429.319 537.84C428.579 538.48 427.839 539.1 427.069 539.71C425.199 539.88 423.342 540.053 421.499 540.23C419.969 540.37 418.459 540.52 416.959 540.66L416.689 540.69L416.499 539.05L415.739 532.41C412.79 527.597 410.963 522.182 410.392 516.566C409.821 510.951 410.52 505.278 412.439 499.97C415.079 492.85 419.859 486.56 424.559 480.32C431.049 471.7 437.359 463.18 437.589 452.67C440.782 456.757 443.437 461.237 445.489 466C443.553 466.911 441.814 468.192 440.369 469.77C439.959 470.22 439.549 470.85 439.829 471.39C440.069 471.85 440.669 471.96 441.189 472.02C442.439 472.15 443.699 472.28 444.949 472.41C445.949 472.52 446.949 472.62 447.949 472.73C449.159 476.701 449.979 480.78 450.399 484.91C451.073 491.334 450.725 497.825 449.369 504.14Z" fill="#9F9F9F"/>
<path d="M482.569 477.93C476.669 482.22 473.219 488.39 470.539 495.19C467.792 496.069 465.321 497.647 463.369 499.77C462.959 500.22 462.549 500.85 462.829 501.39C463.069 501.85 463.669 501.96 464.189 502.02C465.439 502.15 466.699 502.28 467.949 502.41C465.269 510.45 462.809 518.77 458.069 525.56C454.916 530.043 450.807 533.769 446.039 536.47C444.739 537.211 443.396 537.875 442.019 538.46C436.939 538.85 431.955 539.267 427.069 539.71C425.199 539.88 423.342 540.053 421.499 540.23C419.969 540.37 418.459 540.52 416.959 540.66C416.949 540.11 416.949 539.56 416.959 539.01C417.275 524.359 422.665 510.271 432.209 499.15C432.659 498.63 433.119 498.12 433.589 497.61C438.424 492.446 444.11 488.15 450.399 484.91C460.308 479.758 471.415 477.348 482.569 477.93Z" fill="#2B9F29"/>
<path d="M423.229 535.1L422.079 538.5L421.499 540.23C419.969 540.37 418.459 540.52 416.959 540.66L416.689 540.69C415.029 540.86 413.379 541.03 411.729 541.2C411.299 540.7 410.869 540.19 410.449 539.67C400.011 527.03 395.001 510.773 396.513 494.45C398.025 478.128 405.937 463.067 418.519 452.56C417.199 459.47 418.739 466.09 421.269 472.66C420.999 472.77 420.739 472.88 420.489 473C418.553 473.911 416.814 475.192 415.369 476.77C414.959 477.22 414.549 477.85 414.829 478.39C415.069 478.85 415.669 478.96 416.189 479.02C417.439 479.15 418.699 479.28 419.949 479.41C420.949 479.52 421.949 479.62 422.949 479.73C423.419 479.78 423.889 479.83 424.359 479.88C424.429 480.03 424.489 480.17 424.559 480.32C427.409 486.5 430.479 492.71 432.209 499.15C432.643 500.766 432.983 502.405 433.229 504.06C433.999 509.653 433.5 515.347 431.769 520.72C430.037 526.094 427.119 531.009 423.229 535.1Z" fill="#2B9F29"/>
<path d="M523.887 390.061C515.278 373.268 501.941 359.14 486.255 348.757C470.518 338.389 452.461 332.074 433.692 330.377C431.232 330.153 428.765 330.023 426.293 329.984C423.372 329.941 379.427 342.616 364.706 352.966C349.993 363.191 337.89 376.73 329.373 392.493C320.871 408.343 316.689 426.15 317.247 444.127C317.976 462.212 323.017 479.861 331.95 495.603C340.761 511.293 353.272 524.594 368.394 534.348C383.732 544.135 399.139 570.084 417.249 571C435.494 571.923 456.303 547.445 472.944 540.013C489.585 532.519 503.971 520.794 514.669 506.008C525.065 491.517 531.79 474.721 534.268 457.06C536.842 438.977 535.642 420.327 529.467 403.044C527.883 398.603 526.019 394.266 523.887 390.061C522.107 386.555 516.891 385.265 513.625 387.37C511.943 388.406 510.725 390.05 510.224 391.961C509.723 393.873 509.977 395.903 510.935 397.631C511.98 399.69 512.952 401.782 513.85 403.909L513.094 402.117C516.494 410.292 518.806 418.879 519.971 427.656L519.703 425.662C520.941 435.184 520.919 444.828 519.636 454.344L519.904 452.35C518.608 461.866 516.068 471.17 512.35 480.025L513.106 478.233C511.193 482.751 508.964 487.128 506.434 491.331C505.152 493.455 503.792 495.529 502.354 497.553C501.722 498.441 501.071 499.314 500.415 500.184C499.558 501.32 501.582 498.701 500.697 499.815C500.546 500.004 500.397 500.195 500.245 500.384C499.791 500.952 499.33 501.514 498.863 502.072C495.745 505.791 492.343 509.263 488.687 512.455C487.776 513.25 486.85 514.027 485.909 514.786C485.44 515.165 484.977 515.559 484.488 515.911C484.507 515.898 486.068 514.712 485.144 515.4C484.853 515.617 484.565 515.836 484.274 516.052C482.334 517.489 480.343 518.853 478.3 520.144C473.596 523.107 468.662 525.687 463.544 527.857L465.336 527.101C456.508 530.817 447.229 533.356 437.739 534.653L439.733 534.385C430.248 535.667 420.634 535.684 411.144 534.435L413.138 534.703C404.513 533.545 396.076 531.264 388.042 527.919L389.834 528.675C385.181 526.71 380.694 524.372 376.418 521.684C374.302 520.35 372.241 518.935 370.234 517.436C369.948 517.223 369.664 517.006 369.379 516.791C368.464 516.1 370.037 517.301 370.05 517.309C369.517 516.927 369.005 516.518 368.515 516.084C367.546 515.295 366.592 514.488 365.653 513.662C361.897 510.355 358.39 506.775 355.16 502.953C354.351 501.997 353.56 501.027 352.786 500.042C352.451 499.616 351.839 498.752 353.19 500.571C353.012 500.332 352.828 500.097 352.649 499.859C352.218 499.287 351.792 498.711 351.373 498.131C349.904 496.099 348.508 494.017 347.185 491.885C344.195 487.059 341.585 482.008 339.38 476.777L340.136 478.568C336.527 469.982 334.059 460.959 332.795 451.731L333.063 453.725C331.923 445.219 331.907 436.6 333.015 428.089L332.747 430.083C333.883 421.842 336.1 413.786 339.341 406.124L338.585 407.916C340.625 403.119 343.03 398.487 345.781 394.059C347.158 391.844 348.617 389.682 350.158 387.575C350.508 387.096 350.863 386.62 351.221 386.147C351.545 385.719 352.436 384.653 350.915 386.535C351.064 386.351 351.208 386.161 351.355 385.975C352.201 384.903 353.067 383.848 353.954 382.81C357.312 378.879 360.949 375.196 364.838 371.789C365.82 370.928 366.819 370.085 367.832 369.26C368.293 368.885 368.757 368.514 369.223 368.147C369.41 368 369.599 367.856 369.785 367.709C367.787 369.298 369.23 368.141 369.683 367.801C371.773 366.236 373.918 364.749 376.119 363.34C381.011 360.211 386.158 357.499 391.505 355.232L389.714 355.988C397.474 352.73 431.854 345.039 438.108 345.879L436.114 345.611C445.305 346.894 454.288 349.376 462.834 352.993L461.042 352.237C465.373 354.076 469.581 356.19 473.642 358.566C475.671 359.756 477.66 361.01 479.61 362.329C480.532 362.953 481.445 363.591 482.348 364.244C482.799 364.57 483.248 364.899 483.694 365.233C483.942 365.418 484.188 365.605 484.435 365.791C485.475 366.57 483.004 364.662 484.093 365.524C487.739 368.388 491.202 371.479 494.461 374.777C496.062 376.407 497.607 378.089 499.098 379.822C499.862 380.712 500.611 381.614 501.344 382.53C501.709 382.985 502.949 384.631 501.429 382.614C501.8 383.107 502.176 383.597 502.543 384.093C505.703 388.371 508.51 392.898 510.935 397.631C512.728 401.129 517.922 402.433 521.196 400.322C522.879 399.287 524.098 397.642 524.599 395.731C525.1 393.819 524.845 391.789 523.887 390.061Z" fill="#9F9F9F"/>
<path d="M436.497 512.456C435.723 512.491 434.956 512.288 434.301 511.873C433.647 511.459 433.135 510.853 432.836 510.138C432.537 509.423 432.465 508.633 432.63 507.876C432.795 507.119 433.188 506.43 433.757 505.904C433.853 505.526 433.921 505.253 434.016 504.875C433.982 504.792 433.948 504.71 433.914 504.627C430.434 496.33 408.229 519.461 407.269 527.259C406.846 530.706 407.024 534.201 407.796 537.587C400.603 521.897 396.868 504.844 396.844 487.584C396.843 483.253 397.083 478.925 397.565 474.621C397.963 471.092 398.515 467.589 399.222 464.11C403.077 445.237 411.354 427.547 423.373 412.494C430.247 412.877 436.271 411.83 436.853 398.508C436.956 396.139 438.714 394.087 439.101 391.752C438.445 391.838 437.778 391.892 437.122 391.935C436.917 391.946 436.702 391.957 436.498 391.968L436.421 391.971C435.699 392.003 434.984 391.826 434.361 391.462C433.738 391.097 433.234 390.56 432.909 389.916C432.584 389.271 432.452 388.546 432.53 387.828C432.607 387.11 432.89 386.43 433.345 385.87C433.628 385.521 433.912 385.173 434.196 384.824C434.626 384.286 435.067 383.759 435.497 383.221C435.547 383.17 435.594 383.116 435.637 383.06C436.132 382.447 436.627 381.844 437.122 381.231C436.218 379.829 435.003 378.655 433.572 377.799C428.612 374.895 421.77 376.906 418.188 381.392C414.595 385.878 413.917 392.172 415.165 397.777C416.392 402.546 418.422 407.072 421.168 411.16C420.899 411.504 420.619 411.837 420.35 412.182C415.434 418.504 411.149 425.292 407.557 432.45C408.573 424.511 396.145 395.842 391.339 389.769C385.566 382.475 373.728 385.658 372.711 394.905C372.701 394.994 372.691 395.084 372.682 395.173C373.396 395.576 374.094 396.004 374.778 396.456C375.637 397.03 376.303 397.85 376.688 398.808C377.073 399.767 377.159 400.819 376.936 401.828C376.712 402.836 376.189 403.754 375.435 404.46C374.682 405.166 373.732 405.629 372.711 405.786L372.606 405.802C363.051 419.446 393.684 454.957 401.352 446.984C397.743 457.211 395.479 467.865 394.617 478.676C394.129 485.055 394.158 491.462 394.703 497.836L394.671 497.61C392.967 483.728 363.74 463.088 355.205 464.807C350.288 465.797 345.445 465.572 346.192 470.532C346.204 470.611 346.216 470.69 346.228 470.769C347.553 471.309 348.843 471.93 350.09 472.63C350.804 473.033 351.503 473.461 352.186 473.913C353.045 474.487 353.711 475.307 354.096 476.265C354.481 477.224 354.567 478.276 354.344 479.285C354.12 480.293 353.598 481.211 352.844 481.917C352.09 482.624 351.14 483.086 350.119 483.243L350.015 483.259C349.939 483.27 349.875 483.281 349.8 483.292C345.45 498.258 377.707 522.412 397.317 514.726H397.328C399.272 523.171 402.087 531.391 405.73 539.254H435.745C435.852 538.921 435.949 538.576 436.046 538.243C433.268 538.418 430.479 538.251 427.741 537.748C429.968 535.016 432.195 532.262 434.421 529.529C434.471 529.478 434.518 529.424 434.561 529.368C435.691 527.969 436.831 526.581 437.961 525.183L437.961 525.181C438.022 520.894 437.53 516.618 436.498 512.456L436.497 512.456ZM402.126 444.843L402.142 444.821L402.126 444.864V444.843ZM395.478 504.775L395.22 504.194C395.23 503.775 395.23 503.355 395.22 502.925C395.22 502.806 395.198 502.688 395.198 502.57C395.295 503.312 395.381 504.054 395.489 504.797L395.478 504.775Z" fill="#9F9F9F"/>
<path d="M99.2488 450C105.324 450 110.249 445.075 110.249 439C110.249 432.925 105.324 428 99.2488 428C93.1736 428 88.2488 432.925 88.2488 439C88.2488 445.075 93.1736 450 99.2488 450Z" fill="#9F9F9F"/>
<path d="M231.249 570C237.324 570 242.249 565.075 242.249 559C242.249 552.925 237.324 548 231.249 548C225.174 548 220.249 552.925 220.249 559C220.249 565.075 225.174 570 231.249 570Z" fill="#9F9F9F"/>
<path d="M732.249 570C738.324 570 743.249 565.075 743.249 559C743.249 552.925 738.324 548 732.249 548C726.174 548 721.249 552.925 721.249 559C721.249 565.075 726.174 570 732.249 570Z" fill="#9F9F9F"/>
<path d="M759.249 430C765.324 430 770.249 425.075 770.249 419C770.249 412.925 765.324 408 759.249 408C753.174 408 748.249 412.925 748.249 419C748.249 425.075 753.174 430 759.249 430Z" fill="#9F9F9F"/>
<path d="M727.249 328C733.324 328 738.249 323.075 738.249 317C738.249 310.925 733.324 306 727.249 306C721.174 306 716.249 310.925 716.249 317C716.249 323.075 721.174 328 727.249 328Z" fill="#9F9F9F"/>
<path d="M268.249 419C268.242 421.81 267.156 424.51 265.214 426.541C263.272 428.571 260.624 429.778 257.817 429.911C255.011 430.044 252.26 429.093 250.136 427.254C248.011 425.415 246.674 422.83 246.402 420.034C246.13 417.237 246.944 414.443 248.675 412.23C250.406 410.016 252.921 408.553 255.701 408.143C258.481 407.732 261.312 408.406 263.608 410.025C265.905 411.644 267.491 414.084 268.039 416.84C268.18 417.551 268.25 418.275 268.249 419Z" fill="#9F9F9F"/>
<path d="M488.249 360C494.324 360 499.249 355.075 499.249 349C499.249 342.925 494.324 338 488.249 338C482.174 338 477.249 342.925 477.249 349C477.249 355.075 482.174 360 488.249 360Z" fill="#9F9F9F"/>
<path d="M379.249 349C379.242 351.81 378.156 354.51 376.214 356.541C374.272 358.572 371.624 359.778 368.817 359.911C366.011 360.044 363.26 359.093 361.136 357.254C359.011 355.415 357.674 352.83 357.402 350.034C357.13 347.237 357.944 344.443 359.675 342.23C361.406 340.016 363.921 338.553 366.701 338.143C369.481 337.732 372.312 338.406 374.608 340.025C376.905 341.644 378.491 344.084 379.039 346.84C379.18 347.551 379.25 348.275 379.249 349Z" fill="#9F9F9F"/>
<path d="M237.249 317C237.242 319.81 236.156 322.51 234.214 324.541C232.272 326.572 229.624 327.778 226.817 327.911C224.011 328.044 221.26 327.093 219.136 325.254C217.011 323.415 215.674 320.83 215.402 318.034C215.13 315.237 215.944 312.443 217.675 310.23C219.406 308.016 221.921 306.553 224.701 306.143C227.481 305.732 230.312 306.406 232.608 308.025C234.905 309.644 236.491 312.084 237.039 314.84C237.18 315.551 237.25 316.275 237.249 317Z" fill="#9F9F9F"/>
<path d="M603.249 454C609.324 454 614.249 449.075 614.249 443C614.249 436.925 609.324 432 603.249 432C597.174 432 592.249 436.925 592.249 443C592.249 449.075 597.174 454 603.249 454Z" fill="#9F9F9F"/>
<path d="M430.249 354C439.085 354 446.249 346.837 446.249 338C446.249 329.163 439.085 322 430.249 322C421.412 322 414.249 329.163 414.249 338C414.249 346.837 421.412 354 430.249 354Z" fill="#9F9F9F"/>
<path d="M862.941 570.841L5.19067 571.148C5.03431 571.148 4.87948 571.117 4.73502 571.057C4.59056 570.997 4.4593 570.91 4.34874 570.799C4.23817 570.689 4.15046 570.557 4.09062 570.413C4.03078 570.269 4 570.114 4 569.957C4 569.801 4.03078 569.646 4.09062 569.502C4.15046 569.357 4.23817 569.226 4.34874 569.115C4.4593 569.005 4.59056 568.917 4.73502 568.857C4.87948 568.797 5.03431 568.767 5.19067 568.767L862.941 568.459C863.256 568.46 863.558 568.586 863.78 568.809C864.003 569.032 864.128 569.335 864.128 569.65C864.128 569.965 864.003 570.267 863.78 570.491C863.558 570.714 863.256 570.84 862.941 570.841Z" fill="#CACACA"/>
</g>
<defs>
<filter id="filter0_d_409_370" x="0" y="0" width="868.131" height="579.148" filterUnits="userSpaceOnUse" color-interpolation-filters="sRGB">
<feFlood flood-opacity="0" result="BackgroundImageFix"/>
<feColorMatrix in="SourceAlpha" type="matrix" values="0 0 0 0 0 0 0 0 0 0 0 0 0 0 0 0 0 0 127 0" result="hardAlpha"/>
<feOffset dy="4"/>
<feGaussianBlur stdDeviation="2"/>
<feComposite in2="hardAlpha" operator="out"/>
<feColorMatrix type="matrix" values="0 0 0 0 0 0 0 0 0 0 0 0 0 0 0 0 0 0 0.25 0"/>
<feBlend mode="normal" in2="BackgroundImageFix" result="effect1_dropShadow_409_370"/>
<feBlend mode="normal" in="SourceGraphic" in2="effect1_dropShadow_409_370" result="shape"/>
</filter>
<clipPath id="clip0_409_370">
<rect width="860.131" height="571.148" fill="white" transform="translate(4)"/>
</clipPath>
</defs>
</svg>
